<?xml version="1.0" encoding="UTF-8"?>
<svg width="39px" height="39px" viewBox="0 0 39 39" version="1.1" xmlns="http://www.w3.org/2000/svg" xmlns:xlink="http://www.w3.org/1999/xlink">
    <!-- Generator: Sketch 44.1 (41455) - http://www.bohemiancoding.com/sketch -->
    <title>icon 4-camera</title>
    <desc>Created with Sketch.</desc>
    <defs>
        <path d="M1,244.666667 C1,243.746192 1.74619208,243 2.66666667,243 L2.66666667,243 L6.33333333,243 C7.25380792,243 8,243.746192 8,244.666667 L8,244.666667 L8,248.333333 C8,249.253808 7.25380792,250 6.33333333,250 L6.33333333,250 L2.66666667,250 C1.74619208,250 1,249.253808 1,248.333333 L1,244.666667 Z M11.5,244.666667 C11.5,243.746192 12.2461921,243 13.1666667,243 L13.1666667,243 L16.8333333,243 C17.7538079,243 18.5,243.746192 18.5,244.666667 L18.5,244.666667 L18.5,248.333333 C18.5,249.253808 17.7538079,250 16.8333333,250 L16.8333333,250 L13.1666667,250 C12.2461921,250 11.5,249.253808 11.5,248.333333 L11.5,244.666667 Z M22,244.666667 C22,243.746192 22.7461921,243 23.6666667,243 L23.6666667,243 L27.3333333,243 C28.2538079,243 29,243.746192 29,244.666667 L29,244.666667 L29,248.333333 C29,249.253808 28.2538079,250 27.3333333,250 L27.3333333,250 L23.6666667,250 C22.7461921,250 22,249.253808 22,248.333333 L22,244.666667 Z M1,255.166667 C1,254.246192 1.74619208,253.5 2.66666667,253.5 L2.66666667,253.5 L6.33333333,253.5 C7.25380792,253.5 8,254.246192 8,255.166667 L8,255.166667 L8,258.833333 C8,259.753808 7.25380792,260.5 6.33333333,260.5 L2.66666667,260.5 C1.74619208,260.5 1,259.753808 1,258.833333 L1,255.166667 Z M11.5,255.166667 C11.5,254.246192 12.2461921,253.5 13.1666667,253.5 L13.1666667,253.5 L16.8333333,253.5 C17.7538079,253.5 18.5,254.246192 18.5,255.166667 L18.5,255.166667 L18.5,258.833333 C18.5,259.753808 17.7538079,260.5 16.8333333,260.5 L13.1666667,260.5 C12.2461921,260.5 11.5,259.753808 11.5,258.833333 L11.5,255.166667 Z M22,255.166667 C22,254.246192 22.7461921,253.5 23.6666667,253.5 L27.3333333,253.5 C28.2538079,253.5 29,254.246192 29,255.166667 L29,255.166667 L29,258.833333 C29,259.753808 28.2538079,260.5 27.3333333,260.5 L23.6666667,260.5 C22.7461921,260.5 22,259.753808 22,258.833333 L22,255.166667 Z M1,265.666667 C1,264.746192 1.74619208,264 2.66666667,264 L2.66666667,264 L6.33333333,264 C7.25380792,264 8,264.746192 8,265.666667 L8,269.333333 C8,270.253808 7.25380792,271 6.33333333,271 L2.66666667,271 C1.74619208,271 1,270.253808 1,269.333333 L1,265.666667 Z M11.5,265.666667 C11.5,264.746192 12.2461921,264 13.1666667,264 L13.1666667,264 L16.8333333,264 C17.7538079,264 18.5,264.746192 18.5,265.666667 L18.5,269.333333 C18.5,270.253808 17.7538079,271 16.8333333,271 L13.1666667,271 C12.2461921,271 11.5,270.253808 11.5,269.333333 L11.5,265.666667 Z M22,265.666667 C22,264.746192 22.7461921,264 23.6666667,264 L27.3333333,264 C28.2538079,264 29,264.746192 29,265.666667 L29,269.333333 C29,270.253808 28.2538079,271 27.3333333,271 L23.6666667,271 C22.7461921,271 22,270.253808 22,269.333333 L22,265.666667 Z" id="path-camera"></path>
        <filter x="-37.5%" y="-30.4%" width="175.0%" height="175.0%" filterUnits="objectBoundingBox" id="filter-shadow-camera">
            <feOffset dx="0" dy="2" in="SourceAlpha" result="shadowOffsetOuter1"></feOffset>
            <feGaussianBlur stdDeviation="1.5" in="shadowOffsetOuter1" result="shadowBlurOuter1"></feGaussianBlur>
            <feColorMatrix values="0 0 0 0 0   0 0 0 0 0   0 0 0 0 0  0 0 0 0.544088925 0" type="matrix" in="shadowBlurOuter1" result="shadowMatrixOuter1"></feColorMatrix>
            <feOffset dx="0" dy="0" in="SourceAlpha" result="shadowOffsetOuter2"></feOffset>
            <feGaussianBlur stdDeviation="2.5" in="shadowOffsetOuter2" result="shadowBlurOuter2"></feGaussianBlur>
            <feColorMatrix values="0 0 0 0 0   0 0 0 0 0   0 0 0 0 0  0 0 0 0.13967716 0" type="matrix" in="shadowBlurOuter2" result="shadowMatrixOuter2"></feColorMatrix>
            <feMerge>
                <feMergeNode in="shadowMatrixOuter1"></feMergeNode>
                <feMergeNode in="shadowMatrixOuter2"></feMergeNode>
            </feMerge>
        </filter>
    </defs>
    <g id="Page-1" stroke="none" stroke-width="1" fill-rule="evenodd">
        <g id="interface-treedys" transform="translate(-20.000000, -363.000000)">
            <g id="Side-Menu" transform="translate(0.000000, 100.000000)">
                <g id="Icons" transform="translate(24.666667, 25.333333)">
                    <g id="icon-4-camera">
                        <use fill="black" fill-opacity="1" filter="url(#filter-shadow-camera)" xlink:href="#path-camera"></use>
                        <use fill-rule="evenodd" xlink:href="#path-camera"></use>
                    </g>
                </g>
            </g>
        </g>
    </g>
</svg>
