<?xml version="1.0" encoding="UTF-8"?>
<svg width="28px" height="28px" viewBox="0 0 28 28" version="1.1" xmlns="http://www.w3.org/2000/svg" xmlns:xlink="http://www.w3.org/1999/xlink">
    <!-- Generator: Sketch 44.1 (41455) - http://www.bohemiancoding.com/sketch -->
    <title>cloche</title>
    <desc>Created with Sketch.</desc>
    <defs>
        <circle id="patch-cloche" cx="20.5" cy="7.5" r="7.5"></circle>
    </defs>
    <g id="Page-1" stroke="none" stroke-width="1" fill="none" fill-rule="evenodd">
        <g id="interface-treedys" transform="translate(-1269.000000, -36.000000)">
            <g id="Group-10">
                <g id="cloche" transform="translate(1269.000000, 36.000000)">
                    <path d="M13.2321429,26.3214286 C13.2321429,26.1666659 13.1547627,26.0892857 13,26.0892857 C12.4293126,26.0892857 11.9384321,25.8837446 11.5273437,25.4726562 C11.1162554,25.0615679 10.9107143,24.5706874 10.9107143,24 C10.9107143,23.8452373 10.8333341,23.7678571 10.6785714,23.7678571 C10.5238087,23.7678571 10.4464286,23.8452373 10.4464286,24 C10.4464286,24.7061047 10.695496,25.3082192 11.1936384,25.8063616 C11.6917808,26.304504 12.2938953,26.5535714 13,26.5535714 C13.1547627,26.5535714 13.2321429,26.4761912 13.2321429,26.3214286 Z M3.56919643,22.1428571 L22.4308036,22.1428571 C19.857874,19.2410569 18.5714286,15.2172876 18.5714286,10.0714286 C18.5714286,9.57812253 18.4553583,9.07031511 18.2232143,8.54799107 C17.9910703,8.02566703 17.6573682,7.52753213 17.2220982,7.05357143 C16.7868282,6.57961073 16.1992224,6.1902917 15.4592634,5.88560268 C14.7193043,5.58091366 13.8995581,5.42857143 13,5.42857143 C12.1004419,5.42857143 11.2806957,5.58091366 10.5407366,5.88560268 C9.80077755,6.1902917 9.21317182,6.57961073 8.77790179,7.05357143 C8.34263175,7.52753213 8.00892973,8.02566703 7.77678571,8.54799107 C7.5446417,9.07031511 7.42857143,9.57812253 7.42857143,10.0714286 C7.42857143,15.2172876 6.14212596,19.2410569 3.56919643,22.1428571 Z M25.0714286,22.1428571 C25.0714286,22.6458358 24.8876506,23.0810994 24.5200893,23.4486607 C24.1525279,23.8162221 23.7172644,24 23.2142857,24 L16.7142857,24 C16.7142857,25.0253027 16.3515661,25.900666 15.6261161,26.6261161 C14.900666,27.3515661 14.0253027,27.7142857 13,27.7142857 C11.9746973,27.7142857 11.099334,27.3515661 10.3738839,26.6261161 C9.64843387,25.900666 9.28571429,25.0253027 9.28571429,24 L2.78571429,24 C2.28273558,24 1.84747208,23.8162221 1.47991071,23.4486607 C1.11234935,23.0810994 0.928571429,22.6458358 0.928571429,22.1428571 C1.4122048,21.7366051 1.85230456,21.3110141 2.24888393,20.8660714 C2.64546329,20.4211287 3.05654549,19.8431955 3.48214286,19.1322545 C3.90774022,18.4213134 4.26804168,17.654766 4.56305804,16.8325893 C4.85807439,16.0104126 5.09988745,15.0141428 5.28850446,13.84375 C5.47712148,12.6733572 5.57142857,11.4159293 5.57142857,10.0714286 C5.57142857,8.60118313 6.13727113,7.23493935 7.26897321,5.97265625 C8.4006753,4.71037315 9.88540748,3.94382576 11.7232143,3.67299107 C11.6458329,3.48921039 11.6071429,3.30059621 11.6071429,3.10714286 C11.6071429,2.72023616 11.7425582,2.3913704 12.0133929,2.12053571 C12.2842275,1.84970103 12.6130933,1.71428571 13,1.71428571 C13.3869067,1.71428571 13.7157725,1.84970103 13.9866071,2.12053571 C14.2574418,2.3913704 14.3928571,2.72023616 14.3928571,3.10714286 C14.3928571,3.30059621 14.3541671,3.48921039 14.2767857,3.67299107 C16.1145925,3.94382576 17.5993247,4.71037315 18.7310268,5.97265625 C19.8627289,7.23493935 20.4285714,8.60118313 20.4285714,10.0714286 C20.4285714,11.4159293 20.5228785,12.6733572 20.7114955,13.84375 C20.9001126,15.0141428 21.1419256,16.0104126 21.436942,16.8325893 C21.7319583,17.654766 22.0922598,18.4213134 22.5178571,19.1322545 C22.9434545,19.8431955 23.3545367,20.4211287 23.7511161,20.8660714 C24.1476954,21.3110141 24.5877952,21.7366051 25.0714286,22.1428571 Z" id="" fill="#FFFFFF"></path>
                    <g id="Oval-2">
                        <use fill="#00B6F1" fill-rule="evenodd" xlink:href="#patch-cloche"></use>
                        <circle stroke="#343B4C" stroke-width="3" cx="20.5" cy="7.5" r="6"></circle>
                    </g>
                </g>
            </g>
        </g>
    </g>
</svg>
