<?xml version="1.0" encoding="UTF-8"?>
<svg width="191px" height="45px" viewBox="0 0 191 45" version="1.1" xmlns="http://www.w3.org/2000/svg" xmlns:xlink="http://www.w3.org/1999/xlink">
    <!-- Generator: Sketch 44.1 (41455) - http://www.bohemiancoding.com/sketch -->
    <title>logo-treedys</title>
    <desc>Created with Sketch.</desc>
    <defs>
        <polygon id="path-logo" points="16.3273631 0.294139535 16.3273631 19.0556512 0.00996824818 19.0556512 0.00996824818 0.294139535 16.3273631 0.294139535"></polygon>
    </defs>
    <g id="Page-1" stroke="none" stroke-width="1" fill="none" fill-rule="evenodd">
        <g id="interface-treedys" transform="translate(-30.000000, -28.000000)">
            <g id="logo-treedus" transform="translate(30.000000, 28.000000)">
                <g id="Page-1">
                    <polygon id="Fill-1" fill="#FEFEFE" points="66.2205016 14.6900581 66.2205016 34.5326163 61.6378958 34.5326163 61.6378958 14.6900581 55.1784013 14.6900581 55.1784013 10.4178488 72.6772078 10.4178488 72.6772078 14.6900581"></polygon>
                    <g id="Group-30" transform="translate(0.000000, 0.195000)">
                        <path d="M82.8147768,20.5414535 C80.9744849,20.3349419 79.447879,20.5414535 78.4046984,21.6535465 C77.4322714,22.6634302 77.259744,24.1205233 77.259744,25.5465698 L77.259744,34.3376163 L72.6771381,34.3376163 L72.6771381,16.4415698 L77.0506199,16.4415698 L77.0506199,18.2157558 C78.5092604,16.4077326 80.663587,15.7484302 82.8147768,16.0937791 L82.8147768,20.5414535 Z" id="Fill-2" fill="#FEFEFE"></path>
                        <path d="M96.9526108,21.6194651 C96.1182057,20.6123721 94.8686892,20.0207442 93.4103973,20.0207442 C90.772994,20.0207442 88.6552641,22.106093 88.550702,25.1646977 L96.9526108,21.6194651 Z M102.092184,28.6391163 C101.049003,32.2862093 97.8908808,34.753186 93.4466454,34.753186 C88.3781746,34.753186 84.2793425,30.5856279 84.2793425,25.408186 C84.2793425,20.2303953 88.3781746,15.9916744 93.4466454,15.9916744 C97.7525104,15.9916744 101.362341,18.6996977 102.230554,23.4955116 L89.5907458,28.8117907 C90.4959046,30.028186 91.8496345,30.7244651 93.4103973,30.7244651 C94.905983,30.7244651 96.4325889,30.0623721 97.1955432,28.6391163 L102.092184,28.6391163 Z" id="Fill-4" fill="#FEFEFE"></path>
                        <path d="M117.066479,21.6194651 C116.232074,20.6123721 114.982558,20.0207442 113.524266,20.0207442 C110.886862,20.0207442 108.768784,22.106093 108.66457,25.1646977 L117.066479,21.6194651 Z M122.206052,28.6391163 C121.162872,32.2862093 118.004749,34.753186 113.560514,34.753186 C108.492043,34.753186 104.393211,30.5856279 104.393211,25.408186 C104.393211,20.2303953 108.492043,15.9916744 113.560514,15.9916744 C117.866379,15.9916744 121.476209,18.6996977 122.344423,23.4955116 L109.704963,28.8117907 C110.609773,30.028186 111.963503,30.7244651 113.524266,30.7244651 C115.017063,30.7244651 116.546457,30.0623721 117.309412,28.6391163 L122.206052,28.6391163 Z" id="Fill-6" fill="#FEFEFE"></path>
                        <path d="M133.70589,20.2980349 C131.170609,20.2980349 129.123633,22.5218721 129.123633,25.4419884 C129.123633,28.2909419 131.170609,30.4809419 133.70589,30.4809419 C136.241868,30.4809419 138.288496,28.2204767 138.288496,25.4419884 C138.288496,22.592686 136.241868,20.2980349 133.70589,20.2980349 L133.70589,20.2980349 Z M142.871102,34.3373372 L138.49762,34.3373372 L138.49762,32.4274535 C137.072788,33.8848953 135.198688,34.719314 133.010553,34.719314 C128.359982,34.719314 124.50443,30.6874535 124.50443,25.4078023 C124.50443,20.0915233 128.359982,16.0596628 133.010553,16.0596628 C135.093777,16.0596628 136.900261,16.8236163 138.288496,18.1450116 L138.288496,8.48536047 L142.871102,8.48536047 L142.871102,34.3373372 Z" id="Fill-8" fill="#FEFEFE"></path>
                        <path d="M162.812373,35.0674186 C162.812373,39.8974186 159.6546,43.0945116 154.86287,43.0945116 C150.939353,43.0945116 147.710826,40.5228837 147.085893,36.8384651 L151.841027,36.8384651 C152.117768,38.1598605 153.299667,38.8191628 154.86287,38.8191628 C157.361903,38.8191628 158.230116,37.0481163 158.230116,35.3789302 L158.230116,33.2963721 C157.153127,34.198814 155.764892,34.753814 154.134072,34.753814 C149.757454,34.753814 146.843309,31.593 146.843309,26.9018372 L146.843309,16.4416047 L151.425218,16.4416047 L151.425218,26.9018372 C151.425218,27.9089302 151.773061,30.410093 154.758656,30.410093 C156.805284,30.410093 158.230116,28.9163721 158.230116,26.9018372 L158.230116,16.4416047 L162.812373,16.4416047 L162.812373,35.0674186 Z" id="Fill-10" fill="#FEFEFE"></path>
                        <g id="Group-14" transform="translate(174.618613, 15.697674)">
                            <mask id="mask-logo" fill="white">
                                <use xlink:href="#path-logo"></use>
                            </mask>
                            <g id="Clip-13"></g>
                            <path d="M8.48263066,19.0556512 C3.93383321,19.0556512 0.566935401,16.6591395 0.00996824818,12.8027442 L4.66332774,12.8027442 C5.28826022,14.3306512 7.12820365,14.8884419 8.48263066,14.8884419 C10.3225741,14.8884419 11.711158,14.3306512 11.711158,13.2897209 C11.711158,12.2822791 11.0862255,11.8636744 7.95982044,11.3766977 C4.76788978,10.8904186 0.496530292,10.021814 0.496530292,6.02623256 C0.496530292,3.21111628 2.96105766,0.294139535 8.13478759,0.294139535 C12.2311799,0.294139535 15.2868314,2.51797674 15.8779555,5.88774419 L11.1200339,5.88774419 C10.8429445,5.05297674 9.83670912,4.39367442 8.13478759,4.39367442 C6.0174062,4.39367442 5.14954124,5.15762791 5.14954124,5.81693023 C5.14954124,6.75634884 6.46702299,7.06786047 8.68896642,7.416 C13.1328533,8.14576744 16.3275723,9.11937209 16.3275723,13.0092558 C16.3275723,16.5544884 13.064888,19.0556512 8.48263066,19.0556512" id="Fill-12" fill="#FEFEFE" mask="url(#mask-logo)"></path>
                        </g>
                        <path d="M6.12046953,8.7002093 C5.55374325,8.38311628 4.83958449,8.53555814 4.44921953,9.05532558 C1.6577615,12.7739302 0.000104562044,17.3932326 0.000104562044,22.4025349 C0.000104562044,23.8345116 0.146491423,25.2302093 0.411381934,26.5840465 C0.580772445,27.4512558 1.54866843,27.8991628 2.31754799,27.4655581 L19.5012743,17.775907 C20.1195845,17.4270698 20.1181903,16.535093 19.4984859,16.1883488 L6.12046953,8.7002093 Z" id="Fill-15" fill="#FFCD77"></path>
                        <path d="M28.8448339,23.2873256 L42.297438,15.8002326 C42.8662555,15.4831395 43.1126734,14.7917442 42.8718321,14.1861628 C40.4592372,8.11988372 35.4615201,3.3777907 29.2348504,1.30883721 C28.3931259,1.02872093 27.5217755,1.64476744 27.5203814,2.53186047 L27.4931953,22.4905814 C27.4924982,23.1854651 28.2380255,23.625 28.8448339,23.2873256" id="Fill-17" fill="#00B6F1"></path>
                        <path d="M24.9532089,28.6193721 L38.3354078,36.1096047 C38.9017856,36.4263488 39.6159443,36.273907 40.0059608,35.7544884 C42.8002071,32.0355349 44.4596068,27.4141395 44.4596068,22.4023953 C44.4596068,20.9620465 44.3118257,19.5583256 44.0441469,18.196814 C43.8737108,17.3299535 42.9054662,16.8823953 42.1365867,17.3170465 L24.9497235,27.0321628 C24.3321104,27.3813488 24.3338531,28.2726279 24.9532089,28.6193721" id="Fill-19" fill="#FEFEFE"></path>
                        <path d="M26.2891633,17.013907 L26.2891633,1.6465814 C26.2891633,0.99844186 25.8109662,0.449372093 25.1696524,0.361116279 C24.2076816,0.22855814 23.2275867,0.153906977 22.2297162,0.153906977 C16.4620739,0.153906977 11.2207272,2.36553488 7.27281296,5.97355814 C6.61999726,6.57006977 6.74094069,7.6315814 7.51226004,8.06309302 L24.9361305,17.8085581 C25.5422418,18.1476279 26.2891633,17.7091395 26.2891633,17.013907" id="Fill-21" fill="#3CDAE8"></path>
                        <path d="M18.1081593,27.7561395 L18.1085078,43.1524186 C18.1088564,43.7995116 18.5860078,44.3478837 19.2266246,44.4375349 C20.2084622,44.5749767 21.2098181,44.6513721 22.2296465,44.6513721 C27.9955462,44.6513721 33.2344531,42.4414884 37.1820188,38.835907 C37.8348345,38.2397442 37.7142396,37.1778837 36.9429203,36.7460233 L19.4615407,26.9618372 C18.8554294,26.6224186 18.1081593,27.0612558 18.1081593,27.7561395" id="Fill-23" fill="#FC3442"></path>
                        <path d="M15.5254071,21.4944419 L2.14878485,28.9815349 C1.58205858,29.2989767 1.33703485,29.9889767 1.57648193,30.592814 C3.97618084,36.6493256 8.95263704,41.3889767 15.1570002,43.4732791 C15.9997703,43.7565349 16.874606,43.139093 16.874606,42.2495581 L16.8787885,22.289093 C16.879137,21.5938605 16.131867,21.1550233 15.5254071,21.4944419" id="Fill-26" fill="#FF9205"></path>
                        <path d="M166.17833,22.0614767 L174.459295,17.4526395 C174.809578,17.2576395 174.961193,16.8317093 174.812715,16.4591512 C173.327934,12.7248488 170.25137,9.80577907 166.418126,8.53182558 C165.900195,8.35984884 165.363792,8.73868605 165.363095,9.28496512 L165.346016,21.5710116 C165.345319,21.998686 165.804695,22.2693837 166.17833,22.0614767" id="Fill-28" fill="#00B6F1"></path>
                    </g>
                </g>
            </g>
        </g>
    </g>
</svg>
