<?xml version="1.0" encoding="UTF-8"?>
<svg width="41px" height="41px" viewBox="0 0 41 41" version="1.1" xmlns="http://www.w3.org/2000/svg" xmlns:xlink="http://www.w3.org/1999/xlink">
    <!-- Generator: Sketch 44.1 (41455) - http://www.bohemiancoding.com/sketch -->
    <title>icon-calibration</title>
    <desc>Created with Sketch.</desc>
    <defs>
        <path d="M15,409.923077 C14.3461538,409.923077 13.8461538,409.423077 13.8461538,408.769231 C13.8461538,408.115385 14.3461538,407.615385 15,407.615385 C15.6538462,407.615385 16.1538462,408.115385 16.1538462,408.769231 C16.1538462,409.423077 15.6538462,409.923077 15,409.923077 M19.2307692,408.769231 C19.2307692,410.576923 18.1153846,412.115385 16.5,412.730769 C16.5384615,412.807692 16.5384615,412.884615 16.5384615,413 L16.5384615,426.461538 C16.5384615,427.307692 15.8461538,428 15,428 C14.1538462,428 13.4615385,427.307692 13.4615385,426.461538 L13.4615385,413 C13.4615385,412.923077 13.5,412.807692 13.5,412.730769 C11.8846154,412.115385 10.7692308,410.576923 10.7692308,408.769231 C10.7692308,407 11.8846154,405.461538 13.4615385,404.846154 L13.4615385,399.538462 C13.4615385,398.692308 14.1538462,398 15,398 C15.8461538,398 16.5384615,398.692308 16.5384615,399.538462 L16.5384615,404.846154 C18.1153846,405.461538 19.2307692,406.961538 19.2307692,408.769231 Z M27.3076923,399.538462 L27.3076923,412.153846 C28.8846154,412.769231 30,414.269231 30,416.076923 C30,417.884615 28.8846154,419.423077 27.2692308,420.038462 C27.3076923,420.115385 27.3076923,420.192308 27.3076923,420.307692 L27.3076923,426.461538 C27.3076923,427.307692 26.6153846,428 25.7692308,428 C24.9230769,428 24.2307692,427.307692 24.2307692,426.461538 L24.2307692,420.307692 C24.2307692,420.230769 24.2692308,420.115385 24.2692308,420.038462 C22.6538462,419.423077 21.5384615,417.884615 21.5384615,416.076923 C21.5384615,414.307692 22.6538462,412.769231 24.2307692,412.153846 L24.2307692,399.538462 C24.2307692,398.692308 24.9230769,398 25.7692308,398 C26.6153846,398 27.3076923,398.692308 27.3076923,399.538462 Z M25.7692308,417.230769 C26.4230769,417.230769 26.9230769,416.730769 26.9230769,416.076923 C26.9230769,415.423077 26.4230769,414.923077 25.7692308,414.923077 C25.1153846,414.923077 24.6153846,415.423077 24.6153846,416.076923 C24.6153846,416.730769 25.1153846,417.230769 25.7692308,417.230769 Z M2.69230769,426.461538 L2.69230769,420.307692 C2.69230769,420.230769 2.73076923,420.115385 2.73076923,420.038462 C1.11538462,419.423077 0,417.884615 0,416.076923 C0,414.307692 1.11538462,412.769231 2.69230769,412.153846 L2.69230769,399.538462 C2.69230769,398.692308 3.38461538,398 4.23076923,398 C5.07692308,398 5.76923077,398.692308 5.76923077,399.538462 L5.76923077,412.153846 C7.34615385,412.769231 8.46153846,414.269231 8.46153846,416.076923 C8.46153846,417.884615 7.34615385,419.423077 5.73076923,420.038462 C5.76923077,420.115385 5.76923077,420.192308 5.76923077,420.307692 L5.76923077,426.461538 C5.76923077,427.307692 5.07692308,428 4.23076923,428 C3.38461538,428 2.69230769,427.307692 2.69230769,426.461538 Z M4.23076923,414.923077 C3.57692308,414.923077 3.07692308,415.423077 3.07692308,416.076923 C3.07692308,416.730769 3.57692308,417.230769 4.23076923,417.230769 C4.88461538,417.230769 5.38461538,416.730769 5.38461538,416.076923 C5.38461538,415.423077 4.88461538,414.923077 4.23076923,414.923077 Z" id="path-calibration"></path>
        <filter x="-35.0%" y="-28.3%" width="170.0%" height="170.0%" filterUnits="objectBoundingBox" id="filter-shadow-calibration">
            <feOffset dx="0" dy="2" in="SourceAlpha" result="shadowOffsetOuter1"></feOffset>
            <feGaussianBlur stdDeviation="1.5" in="shadowOffsetOuter1" result="shadowBlurOuter1"></feGaussianBlur>
            <feColorMatrix values="0 0 0 0 0   0 0 0 0 0   0 0 0 0 0  0 0 0 0.544088925 0" type="matrix" in="shadowBlurOuter1" result="shadowMatrixOuter1"></feColorMatrix>
            <feOffset dx="0" dy="0" in="SourceAlpha" result="shadowOffsetOuter2"></feOffset>
            <feGaussianBlur stdDeviation="2.5" in="shadowOffsetOuter2" result="shadowBlurOuter2"></feGaussianBlur>
            <feColorMatrix values="0 0 0 0 0   0 0 0 0 0   0 0 0 0 0  0 0 0 0.13967716 0" type="matrix" in="shadowBlurOuter2" result="shadowMatrixOuter2"></feColorMatrix>
            <feMerge>
                <feMergeNode in="shadowMatrixOuter1"></feMergeNode>
                <feMergeNode in="shadowMatrixOuter2"></feMergeNode>
            </feMerge>
        </filter>
    </defs>
    <g id="Page-1" stroke="none" stroke-width="1" fill-rule="evenodd">
        <g id="interface-treedys" transform="translate(-19.000000, -518.000000)">
            <g id="Side-Menu" transform="translate(0.000000, 100.000000)">
                <g id="Icons" transform="translate(24.666667, 25.333333)">
                    <g id="icon-calibration">
                        <use fill="black" fill-opacity="1" filter="url(#filter-shadow-calibration)" xlink:href="#path-calibration"></use>
                        <use fill-rule="evenodd" xlink:href="#path-calibration"></use>
                    </g>
                </g>
            </g>
        </g>
    </g>
</svg>
