<?xml version="1.0" encoding="UTF-8"?>
<svg width="40px" height="40px" viewBox="0 0 40 40" version="1.1" xmlns="http://www.w3.org/2000/svg" xmlns:xlink="http://www.w3.org/1999/xlink">
    <!-- Generator: Sketch 44.1 (41455) - http://www.bohemiancoding.com/sketch -->
    <title>icon 3 -open shoot session</title>
    <desc>Created with Sketch.</desc>
    <defs>
        <path d="M18.409091,164.378055 C18.409091,166.243703 16.882789,167.75611 15.0000001,167.75611 C13.1172112,167.75611 11.5909092,166.243703 11.5909092,164.378055 C11.5909092,162.512407 13.1172112,161 15.0000001,161 C16.882789,161 18.409091,162.512407 18.409091,164.378055 Z M6.13636358,175.863443 C6.13636358,177.542527 4.76269178,178.903693 3.06818179,178.903693 C1.37367178,178.903693 0,177.542527 0,175.863443 C0,174.18436 1.37367178,172.823194 3.06818179,172.823194 C4.76269178,172.823194 6.13636358,174.18436 6.13636358,175.863443 Z M8.52272721,182.957353 C8.52272721,184.636436 7.14905541,185.997602 5.45454542,185.997602 C3.76003541,185.997602 2.38636363,184.636436 2.38636363,182.957353 C2.38636363,181.278269 3.76003541,179.917103 5.45454542,179.917103 C7.14905541,179.917103 8.52272721,181.278269 8.52272721,182.957353 Z M13.4780845,187.297556 C13.4780845,188.790075 12.2570429,190 10.7508118,190 C9.24458063,190 8.02353902,188.790075 8.02353902,187.297556 C8.02353902,185.805037 9.24458063,184.595112 10.7508118,184.595112 C12.2570429,184.595112 13.4780845,185.805037 13.4780845,187.297556 Z M21.8147207,187.282179 C21.8147207,188.774698 20.5936791,189.984623 19.087448,189.984623 C17.5812169,189.984623 16.3601753,188.774698 16.3601753,187.282179 C16.3601753,185.789661 17.5812169,184.579735 19.087448,184.579735 C20.5936791,184.579735 21.8147207,185.789661 21.8147207,187.282179 Z M27.9545455,182.619573 C27.9545455,183.925526 26.886134,184.984211 25.5681818,184.984211 C24.2502296,184.984211 23.1818182,183.925526 23.1818182,182.619573 C23.1818182,181.313619 24.2502296,180.254934 25.5681818,180.254934 C26.886134,180.254934 27.9545455,181.313619 27.9545455,182.619573 Z M30,176.201252 C30,177.507205 28.9315886,178.56589 27.6136364,178.56589 C26.2956841,178.56589 25.2272727,177.507205 25.2272727,176.201252 C25.2272727,174.895298 26.2956841,173.836613 27.6136364,173.836613 C28.9315886,173.836613 30,174.895298 30,176.201252 Z M24.8863637,165.391468 C24.8863637,166.324293 24.1232127,167.080496 23.1818182,167.080496 C22.2404238,167.080496 21.4772728,166.324293 21.4772728,165.391468 C21.4772728,164.458644 22.2404238,163.702441 23.1818182,163.702441 C24.1232127,163.702441 24.8863637,164.458644 24.8863637,165.391468 Z M9.88636374,168.093914 C9.88636374,169.959563 8.36006174,171.471969 6.47727285,171.471969 C4.59448394,171.471969 3.06818195,169.959563 3.06818195,168.093914 C3.06818195,166.228266 4.59448394,164.715859 6.47727285,164.715859 C8.36006174,164.715859 9.88636374,166.228266 9.88636374,168.093914 Z M28.6363635,170.120748 C28.6363635,171.240137 27.7205823,172.147581 26.5909089,172.147581 C25.4612356,172.147581 24.5454544,171.240137 24.5454544,170.120748 C24.5454544,169.001359 25.4612356,168.093915 26.5909089,168.093915 C27.7205823,168.093915 28.6363635,169.001359 28.6363635,170.120748 Z" id="path-session"></path>
        <filter x="-35.0%" y="-29.3%" width="170.0%" height="172.4%" filterUnits="objectBoundingBox" id="filter-shadow-session">
            <feOffset dx="0" dy="2" in="SourceAlpha" result="shadowOffsetOuter1"></feOffset>
            <feGaussianBlur stdDeviation="1.5" in="shadowOffsetOuter1" result="shadowBlurOuter1"></feGaussianBlur>
            <feColorMatrix values="0 0 0 0 0   0 0 0 0 0   0 0 0 0 0  0 0 0 0.544088925 0" type="matrix" in="shadowBlurOuter1" result="shadowMatrixOuter1"></feColorMatrix>
            <feOffset dx="0" dy="0" in="SourceAlpha" result="shadowOffsetOuter2"></feOffset>
            <feGaussianBlur stdDeviation="2.5" in="shadowOffsetOuter2" result="shadowBlurOuter2"></feGaussianBlur>
            <feColorMatrix values="0 0 0 0 0   0 0 0 0 0   0 0 0 0 0  0 0 0 0.13967716 0" type="matrix" in="shadowBlurOuter2" result="shadowMatrixOuter2"></feColorMatrix>
            <feMerge>
                <feMergeNode in="shadowMatrixOuter1"></feMergeNode>
                <feMergeNode in="shadowMatrixOuter2"></feMergeNode>
            </feMerge>
        </filter>
    </defs>
    <g id="Page-1" stroke="none" stroke-width="1" fill-rule="evenodd">
        <g id="interface-treedys" transform="translate(-20.000000, -281.000000)" fill-rule="nonzero">
            <g id="Side-Menu" transform="translate(0.000000, 100.000000)">
                <g id="Icons" transform="translate(24.666667, 25.333333)">
                    <g id="icon-3--open-shoot-session">
                        <use fill="black" fill-opacity="1" filter="url(#filter-shadow-session)" xlink:href="#path-session"></use>
                        <use fill-rule="evenodd" xlink:href="#path-session"></use>
                    </g>
                </g>
            </g>
        </g>
    </g>
</svg>
