<?xml version="1.0" encoding="UTF-8"?>
<svg width="41px" height="41px" viewBox="0 0 41 41" version="1.1" xmlns="http://www.w3.org/2000/svg" xmlns:xlink="http://www.w3.org/1999/xlink">
    <!-- Generator: Sketch 44.1 (41455) - http://www.bohemiancoding.com/sketch -->
    <title>icon 2 -admin panel</title>
    <desc>Created with Sketch.</desc>
    <defs>
        <path d="M28.9715158,92.0562858 L27.7143735,92.0562858 C26.7167375,92.0562858 26.3691391,91.5458978 26.2527429,91.2752809 C26.2381139,91.2304431 26.2203047,91.1862413 26.2053576,91.1407674 C26.2012233,91.1264575 26.1983611,91.1118296 26.1983611,91.1118296 L26.1945449,91.1121476 C26.0527069,90.7003392 25.8863812,90.2990248 25.7000201,89.9066144 C25.6962039,89.8973924 25.698112,89.8913504 25.6936597,89.8808565 C25.312987,88.9691541 25.8199146,88.3481026 25.9919646,88.1716133 L26.0415761,88.1226415 C26.0428482,88.1210515 26.0488906,88.1156455 26.0488906,88.1156455 L26.0485726,88.1156455 L26.8124622,87.3511766 C27.5677653,86.5952936 27.1320747,85.9437142 26.9145474,85.7023532 L24.3468351,83.1345135 C23.61761,82.4056604 22.9748868,82.8782065 22.7710345,83.0667797 L22.706158,83.1319695 L22.7042498,83.1341955 L21.5619136,84.2754929 C21.5615956,84.2758109 21.5615956,84.2758109 21.5615956,84.2758109 C21.0530779,84.7836549 20.3601073,84.4252703 20.3601073,84.4252703 L20.3601073,84.4268603 C19.9593991,84.2242951 19.5469242,84.0497138 19.1261807,83.8945304 C19.1042371,83.8789485 19.0616221,83.8605046 18.9957915,83.8398346 C17.9291446,83.50053 17.9440917,82.6715073 17.9440917,82.6715073 L17.9440917,81.498092 C17.9440917,80.3281747 17.0005194,80.0543778 16.3714713,80 L13.632663,80 C13.0042509,80.0543778 12.0603606,80.3281747 12.0603606,81.498092 C12.0603606,81.5518338 12.0581345,81.5906296 12.0562263,81.6373755 L12.0562263,82.8937884 C12.022198,83.1335595 11.8603246,83.5154759 11.2051986,83.7689209 C11.1988382,83.7711469 11.196294,83.7733729 11.1902516,83.7762349 C10.7462924,83.9256943 10.3150541,84.1050456 9.89335651,84.3060208 C9.87904551,84.3114268 9.86918682,84.3123808 9.85423977,84.3187407 C8.97618013,84.6898452 8.36684935,84.1975832 8.19384521,84.0309519 L7.4131004,83.250265 C7.41182831,83.248993 7.41151029,83.248357 7.4102382,83.247721 C6.65175495,82.488976 6.02684108,82.8101548 5.72821812,83.0585118 L3.10898625,85.6781853 C2.89495723,85.9103244 2.40297669,86.5669917 3.01485164,87.1785033 C3.01548769,87.1791393 3.01548769,87.1794573 3.01644175,87.1810473 L4.12983791,88.2940428 C4.13047396,88.2940428 4.13047396,88.2943608 4.13047396,88.2943608 C4.7735151,88.9373543 4.30761239,89.8770405 4.30761239,89.8770405 L4.31238273,89.8783125 C4.11425482,90.2923468 3.93902452,90.7165571 3.79019007,91.1525334 C3.78764589,91.1595294 3.78382962,91.1636633 3.78128545,91.1716133 C3.4686695,91.9777401 2.73626409,92.0524698 2.50887812,92.0562858 L0.879331729,92.0562858 C0.538093774,92.0788637 0,92.2101972 0,92.8350647 L0,97.0517278 C0.0257598083,97.3598686 0.200354065,97.9433962 1.15505709,97.9433962 L2.48757063,97.9433962 C2.69492118,97.9465762 3.48234446,98.005724 3.74312277,98.7129531 C3.74344079,98.7139071 3.74407683,98.7145431 3.74471288,98.7161331 C3.9145368,99.2328811 4.1196612,99.7346831 4.35817794,100.219949 L4.35563377,100.220903 C4.35563377,100.220903 4.35945003,100.226945 4.36517444,100.234577 C4.38520984,100.276553 4.40524525,100.317893 4.42623472,100.358915 C4.52959198,100.612678 4.64471606,101.191753 3.97686918,101.859869 C3.97623313,101.860187 3.97623313,101.860823 3.97496104,101.861777 L2.86728928,102.969048 C2.67106951,103.202777 2.4315987,103.643841 2.88096424,104.093492 C2.88096424,104.093492 2.88096424,104.093492 2.88096424,104.09381 L5.911717,107.124656 L5.91235305,107.124656 C5.91235305,107.124656 6.51818558,107.642039 7.27094442,106.892198 L8.32677854,105.836443 C8.62285732,105.5954 9.18734695,105.309519 9.94137788,105.722917 C10.0122969,105.761077 10.0689048,105.783973 10.1112018,105.793513 C10.4193654,105.93216 10.7329355,106.060632 11.0528659,106.171613 L11.0490496,106.176383 C11.0490496,106.176383 11.0652688,106.179563 11.0814879,106.183061 C11.1644917,106.211681 11.2465415,106.241255 11.3295453,106.268921 C11.6275323,106.403116 12.0562263,106.725249 12.0562263,107.49099 L12.0562263,109.061268 C12.0600426,109.243481 12.1319157,109.865169 12.8134375,110 L16.7565963,110 C17.948226,110 17.9440917,108.915624 17.9440917,108.915624 L17.9440917,107.413716 C17.9638091,107.12243 18.1018307,106.522684 18.8806674,106.200551 C18.8905261,106.197053 18.8943424,106.193237 18.903565,106.188467 C19.2778773,106.058724 19.643921,105.908628 20.0029682,105.740725 C20.0236397,105.733411 20.0411309,105.729913 20.0640285,105.720373 C21.0292263,105.316197 21.7587695,105.92262 21.7587695,105.92262 L22.6237902,106.786941 L22.6241082,106.786941 C22.6241082,106.786941 23.4983516,107.714861 24.3395206,106.873119 C24.3414288,106.871211 24.3427009,106.871211 24.344291,106.869303 L26.8334517,104.379372 C26.8344058,104.379054 26.8344058,104.379054 26.8344058,104.379054 C27.4774469,103.736379 27.3114393,103.227263 27.0999544,102.93693 L25.9455334,101.782913 C25.4036233,101.241361 25.441786,100.720797 25.5492776,100.403116 C25.598889,100.306445 25.6459563,100.209137 25.6920696,100.11183 C25.7016103,100.096566 25.7092428,100.086708 25.7092428,100.086708 L25.7038364,100.084482 C25.882883,99.7060632 26.0431662,99.3196947 26.181824,98.9234683 C26.1862763,98.9120204 26.1916827,98.9059784 26.196135,98.8929404 C26.58126,97.9214543 27.6682603,97.9446682 27.6682603,97.9446682 L28.746992,97.9446682 C29.0322581,97.9354463 30,97.8037948 30,96.4281323 L30,93.501908 C30,92.3005088 29.3207043,92.0868137 28.9715158,92.0562858 Z M14.9966608,101.652533 C11.3301814,101.652533 8.34649592,98.6681153 8.34649592,94.999682 C8.34649592,91.3318847 11.3301814,88.3477846 14.9966608,88.3477846 C18.6675925,88.3477846 21.6538221,91.3318847 21.6538221,94.999682 C21.6535041,98.6681153 18.6675925,101.652533 14.9966608,101.652533 Z" id="path-admin"></path>
        <filter x="-35.0%" y="-28.3%" width="170.0%" height="170.0%" filterUnits="objectBoundingBox" id="filter-shadow-admin">
            <feOffset dx="0" dy="2" in="SourceAlpha" result="shadowOffsetOuter1"></feOffset>
            <feGaussianBlur stdDeviation="1.5" in="shadowOffsetOuter1" result="shadowBlurOuter1"></feGaussianBlur>
            <feColorMatrix values="0 0 0 0 0   0 0 0 0 0   0 0 0 0 0  0 0 0 0.544088925 0" type="matrix" in="shadowBlurOuter1" result="shadowMatrixOuter1"></feColorMatrix>
            <feOffset dx="0" dy="0" in="SourceAlpha" result="shadowOffsetOuter2"></feOffset>
            <feGaussianBlur stdDeviation="2.5" in="shadowOffsetOuter2" result="shadowBlurOuter2"></feGaussianBlur>
            <feColorMatrix values="0 0 0 0 0   0 0 0 0 0   0 0 0 0 0  0 0 0 0.13967716 0" type="matrix" in="shadowBlurOuter2" result="shadowMatrixOuter2"></feColorMatrix>
            <feMerge>
                <feMergeNode in="shadowMatrixOuter1"></feMergeNode>
                <feMergeNode in="shadowMatrixOuter2"></feMergeNode>
            </feMerge>
        </filter>
    </defs>
    <g id="Page-1" stroke="none" stroke-width="1" fill-rule="evenodd">
        <g id="interface-treedys" transform="translate(-19.000000, -200.000000)" fill-rule="nonzero">
            <g id="Side-Menu" transform="translate(0.000000, 100.000000)">
                <g id="Icons" transform="translate(24.666667, 25.333333)">
                    <g id="icon-2--admin-panel">
                        <use fill="black" fill-opacity="1" filter="url(#filter-shadow-admin)" xlink:href="#path-admin"></use>
                        <use fill-rule="evenodd" xlink:href="#path-admin"></use>
                    </g>
                </g>
            </g>
        </g>
    </g>
</svg>
